# xmcd CD database file
#
# Track frame offsets:
#	150
#	11937
#	24693
#	36121
#	48286
#	61432
#	74430
#	87537
#	100783
#	111689
#	123427
#	134836
#	146486
#	155923
#
# Disc length: 2240 seconds
#
# Revision: 3
# Processed by: cddbd v1.5.2PL0 Copyright (c) Steve Scherf et al.
# Submitted via: CDex 1.70beta2
#
DISCID=da08be0e
DTITLE=Various Artist - Country Classics
DYEAR=2003
DGENRE=Country
TTITLE0=Frankie Laine - High noon
TTITLE1=Lynn Anderson - Rose Garden
TTITLE2=Freddy Fender - Before the next Teardrop fails
TTITLE3=Johnny Chash - I walk the line
TTITLE4=Charlie Rich - Behind closed doors
TTITLE5=Kenny Rogers - Ruby (don't take your love to town)
TTITLE6=Jerry Lee Lewis - You win again
TTITLE7=Patti Page - Tennessee waltz
TTITLE8=Hank Locklin - Send me the pillow that you dream on
TTITLE9=Skeeter Davis - The end of the world
TTITLE10=Patsy Cline - Walking after Midnight
TTITLE11=Hank Williams - Settn' the woods on fire
TTITLE12=Dave Duddley - Six days on the road
TTITLE13=Merle Haggard - Okie from Muskogee
EXTD=YEAR: 2003
EXTT0=
EXTT1=
EXTT2=
EXTT3=
EXTT4=
EXTT5=
EXTT6=
EXTT7=
EXTT8=
EXTT9=
EXTT10=
EXTT11=
EXTT12=
EXTT13=
PLAYORDER=
